<?xml version="1.0" encoding="UTF-8"?><svg id="Capa_1" xmlns="http://www.w3.org/2000/svg" viewBox="0 0 1000 1000"><defs><style>.cls-1{fill:#0b24fa;}.cls-2{fill:#6094f0;}</style></defs><g><path class="cls-2" d="M541.68,339.19l-19.16,19.29h0l32.21,32.09c1.54,1.5,2.33,3.58,2.12,5.53,.02-.08,.03-.18,.03-.34l.8-48.75c0-10.31-10.77-13.06-15.99-7.83Z"/><g><path class="cls-1" d="M444.09,440.49v.23c0-.08,0-.15,0-.23Z"/><path class="cls-1" d="M444.1,440c0,.06,0,.13,0,.13h0s0-.08,0-.13Z"/><path class="cls-1" d="M447.57,447.96c-2.06-2.01-3.36-4.65-3.47-7.24l.15,49.53c0,8.73,8.78,11.74,14.38,6.14l20.02-20.16-.3-.31-30.77-27.96Z"/></g><path class="cls-1" d="M444.24,302.17v46.87c0,6.35,2.52,12.43,7.01,16.92l68.77,68.77,35.28-35.4c2.44-2.43,1.89-6.35-.58-8.76l-93.64-93.31c-8.98-8.98-16.84-1.41-16.84,4.9Z"/><path class="cls-2" d="M483.17,397.88l68.52,67.92c3.7,3.73,5.98,9.71,5.98,14.96v49.18c0,8.73-8.02,11.28-13.56,5.74l-96.54-87.73c-3.66-3.57-4.91-9.13-1.42-12.88l37.03-37.2Z"/></g><g><path d="M196.16,678.74h-54.1v-113.73h52.8c23.23,0,37.53,11.54,37.53,29.41v.33c0,12.84-6.82,19.98-14.95,24.53,13.16,5.04,21.28,12.67,21.28,27.95v.33c0,20.8-16.9,31.2-42.57,31.2Zm11.37-80.1c0-7.47-5.85-11.7-16.41-11.7h-24.7v24.05h23.07c11.05,0,18.04-3.58,18.04-12.02v-.33Zm6.34,45.49c0-7.64-5.69-12.35-18.52-12.35h-28.92v25.02h29.73c11.05,0,17.71-3.9,17.71-12.35v-.33Z"/><path d="M337.68,643.81h-60.6c2.44,11.21,10.24,17.06,21.28,17.06,8.29,0,14.3-2.6,21.12-8.94l14.14,12.51c-8.12,10.07-19.82,16.25-35.58,16.25-26.16,0-45.49-18.36-45.49-45v-.33c0-24.86,17.71-45.33,43.06-45.33,29.08,0,42.41,22.58,42.41,47.28v.33c0,2.44-.16,3.9-.33,6.17Zm-42.08-33.96c-10.24,0-16.9,7.31-18.85,18.52h37.21c-1.46-11.05-7.96-18.52-18.36-18.52Z"/><path d="M464.58,678.74v-48.58c0-11.7-5.2-17.71-14.46-17.71s-14.95,6.01-14.95,17.71v48.58h-24.7v-48.58c0-11.7-5.2-17.71-14.46-17.71s-14.95,6.01-14.95,17.71v48.58h-24.7v-87.09h24.7v12.35c5.69-7.31,13.16-13.97,25.67-13.97,11.37,0,19.98,5.04,24.53,13.81,7.64-8.94,16.74-13.81,28.6-13.81,18.36,0,29.41,11.05,29.41,32.01v56.7h-24.7Z"/><path d="M618.93,678.74v-48.58c0-11.7-5.2-17.71-14.46-17.71s-14.95,6.01-14.95,17.71v48.58h-24.7v-48.58c0-11.7-5.2-17.71-14.46-17.71s-14.95,6.01-14.95,17.71v48.58h-24.7v-87.09h24.7v12.35c5.69-7.31,13.16-13.97,25.67-13.97,11.37,0,19.98,5.04,24.53,13.81,7.64-8.94,16.74-13.81,28.6-13.81,18.36,0,29.41,11.05,29.41,32.01v56.7h-24.7Z"/><path d="M716.91,680.37c-13.16,0-21.28-6.01-27.13-13v11.37h-24.7v-118.61h24.7v44.03c6.01-8.12,14.3-14.14,27.13-14.14,20.31,0,39.64,15.92,39.64,45.01v.33c0,29.08-19.01,45.01-39.64,45.01Zm14.95-45.33c0-14.46-9.75-24.05-21.29-24.05s-21.12,9.59-21.12,24.05v.33c0,14.46,9.59,24.05,21.12,24.05s21.29-9.42,21.29-24.05v-.33Z"/><path d="M817.49,680.69c-26.97,0-46.96-19.98-46.96-45v-.33c0-25.02,20.15-45.33,47.28-45.33s46.96,19.98,46.96,45.01v.33c0,25.02-20.15,45.33-47.28,45.33Zm22.91-45.33c0-12.84-9.26-24.05-22.91-24.05s-22.58,10.89-22.58,23.72v.33c0,12.84,9.26,24.05,22.91,24.05s22.58-10.89,22.58-23.72v-.33Z"/></g></svg>